<svg width="28" height="29" viewBox="0 0 28 29" fill="none" xmlns="http://www.w3.org/2000/svg">
<g clip-path="url(#clip0_368_678)">
<path d="M14 14.5C17.866 14.5 21 11.366 21 7.5C21 3.63401 17.866 0.5 14 0.5C10.134 0.5 7 3.63401 7 7.5C7 11.366 10.134 14.5 14 14.5Z" fill="#143651"/>
<path d="M27.9642 27.5008C28.0036 28.0517 27.5522 28.5 26.9999 28.5H0.999904C0.447619 28.5 -0.00381273 28.0517 0.0356028 27.5008C0.142678 26.0043 0.489785 24.5326 1.06559 23.1424C1.76916 21.4439 2.80039 19.9005 4.10041 18.6005C5.40043 17.3005 6.94378 16.2693 8.64233 15.5657C10.3409 14.8621 12.1615 14.5 14 14.5C15.8385 14.5 17.6589 14.8621 19.3575 15.5657C21.056 16.2693 22.5994 17.3005 23.8994 18.6005C25.1994 19.9005 26.2307 21.4439 26.9342 23.1424C27.51 24.5325 27.8571 26.0043 27.9642 27.5008Z" fill="#143651"/>
</g>
<defs>
<clipPath id="clip0_368_678">
<rect width="28" height="28" fill="white" transform="translate(0 0.5)"/>
</clipPath>
</defs>
</svg>
