<svg width="28" height="29" viewBox="0 0 28 29" fill="none" xmlns="http://www.w3.org/2000/svg">
<g clip-path="url(#clip0_368_685)">
<path fill-rule="evenodd" clip-rule="evenodd" d="M14.6288 0.606599C14.3826 0.464467 14.0793 0.464467 13.8331 0.606599L2.39783 7.20877C2.15165 7.3509 2 7.61357 2 7.89783V21.1022C2 21.3864 2.15165 21.6491 2.39783 21.7912L13.8331 28.3934C14.0793 28.5355 14.3826 28.5355 14.6288 28.3934L26.0641 21.7912C26.3103 21.6491 26.4619 21.3864 26.4619 21.1022V7.89783C26.4619 7.61357 26.3103 7.3509 26.0641 7.20877L14.6288 0.606599ZM25.6662 7.89783L14.231 1.29567L2.79567 7.89783L2.79567 21.1022L14.231 27.7043L25.6662 21.1022V7.89783Z" fill="#143651"/>
<circle cx="14" cy="14.5" r="9" fill="#143651"/>
</g>
<defs>
<clipPath id="clip0_368_685">
<rect width="28" height="28" fill="white" transform="translate(0 0.5)"/>
</clipPath>
</defs>
</svg>
