<svg width="28" height="29" viewBox="0 0 28 29" fill="none" xmlns="http://www.w3.org/2000/svg">
<g clip-path="url(#clip0_368_693)">
<path d="M9.96227 24.4623C7.7168 26.7077 4.79146 28.1169 1.67007 28.4895C0.752107 28.599 0 27.8393 0 26.9148V2.08517C0 1.16069 0.752108 0.400977 1.67007 0.51054C4.79146 0.883094 7.7168 2.29231 9.96227 4.53773C12.1337 6.70919 13.5231 9.51641 13.9492 12.5219V2.08517C13.9492 1.16069 14.7014 0.400977 15.6193 0.51054C18.7407 0.883094 21.666 2.29231 23.9115 4.53773C26.5537 7.17991 28.038 10.7635 28.038 14.5C28.038 18.2366 26.5537 21.8201 23.9115 24.4623C21.666 26.7077 18.7407 28.1169 15.6193 28.4895C14.7014 28.599 13.9492 27.8393 13.9492 26.9148V16.4781C13.5231 19.4836 12.1337 22.2908 9.96227 24.4623Z" fill="#143651"/>
</g>
<defs>
<clipPath id="clip0_368_693">
<rect width="28" height="28" fill="white" transform="translate(0 0.5)"/>
</clipPath>
</defs>
</svg>
