<svg width="28" height="28" viewBox="0 0 28 28" fill="none" xmlns="http://www.w3.org/2000/svg">
<g clip-path="url(#clip0_368_503)">
<path d="M15 23C15 24.1046 15.9026 25.0184 16.989 24.8187C17.7484 24.6791 18.4928 24.4596 19.2095 24.1627C20.5441 23.6099 21.7567 22.7996 22.7782 21.7782C23.7996 20.7567 24.6099 19.5441 25.1627 18.2095C25.7155 16.8749 26 15.4445 26 14C26 12.5555 25.7155 11.1251 25.1627 9.79048C24.6099 8.4559 23.7996 7.24327 22.7782 6.22183C21.7567 5.20038 20.5441 4.39013 19.2095 3.83733C18.4928 3.54044 17.7484 3.32093 16.989 3.18132C15.9027 2.98159 15 3.89543 15 5L15 23Z" fill="white"/>
<circle cx="14" cy="14" r="13.5" stroke="white"/>
</g>
<defs>
<clipPath id="clip0_368_503">
<rect width="28" height="28" fill="white"/>
</clipPath>
</defs>
</svg>
