<svg width="28" height="29" viewBox="0 0 28 29" fill="none" xmlns="http://www.w3.org/2000/svg">
<g clip-path="url(#clip0_368_700)">
<path d="M0.00292969 1.49927C-0.0371094 0.948242 0.415039 0.5 0.966797 0.5H26.9668C27.5195 0.5 27.9707 0.948242 27.9316 1.49927C27.8242 2.99561 27.4766 4.46753 26.9014 5.85767C26.1973 7.55615 25.166 9.09937 23.8662 10.3994C22.5664 11.6995 21.0234 12.7307 19.3242 13.4343C17.626 14.1379 15.8057 14.5 13.9668 14.5C12.1279 14.5 10.3076 14.1379 8.60938 13.4343C7.74609 13.0769 6.92383 12.6348 6.15234 12.1157C5.40527 11.6133 4.70703 11.0388 4.06738 10.3994C2.76758 9.09937 1.73633 7.55615 1.03223 5.85767C0.457031 4.46753 0.109375 2.99561 0.00292969 1.49927Z" fill="#143651"/>
<path d="M13.9668 14.5H27C27.5527 14.5 28 14.9478 28 15.5V27.5C28 28.0522 27.5527 28.5 27 28.5H1C0.447266 28.5 0 28.0522 0 27.5V15.5C0 14.9478 0.447266 14.5 1 14.5H13.9668Z" fill="#143651"/>
</g>
<defs>
<clipPath id="clip0_368_700">
<rect width="28" height="28" fill="white" transform="translate(0 0.5)"/>
</clipPath>
</defs>
</svg>
