<svg width="16" height="16" viewBox="0 0 16 16" fill="none" xmlns="http://www.w3.org/2000/svg">
<path d="M8.78033 2.66668L12.0003 5.88668V13.3333H4.00033V2.66668H8.78033ZM9.33366 1.33334H4.00033C3.26699 1.33334 2.66699 1.93334 2.66699 2.66668V13.3333C2.66699 14.0667 3.26699 14.6667 4.00033 14.6667H12.0003C12.7337 14.6667 13.3337 14.0667 13.3337 13.3333V5.33334L9.33366 1.33334ZM10.0003 7.33334H7.33366V8.00001H9.33366C9.70033 8.00001 10.0003 8.30001 10.0003 8.66668V10.6667C10.0003 11.0333 9.70033 11.3333 9.33366 11.3333H8.66699V12H7.33366V11.3333H6.00033V10H8.66699V9.33334H6.66699C6.30033 9.33334 6.00033 9.03334 6.00033 8.66668V6.66668C6.00033 6.30001 6.30033 6.00001 6.66699 6.00001H7.33366V5.33334H8.66699V6.00001H10.0003V7.33334Z" fill="#383838"/>
</svg>
